<svg width="25" height="25" viewBox="0 0 25 25" fill="none" xmlns="http://www.w3.org/2000/svg">
<path fill-rule="evenodd" clip-rule="evenodd" d="M12.5 0C5.59646 0 0 5.59646 0 12.5C0 19.4035 5.59646 25 12.5 25C19.4035 25 25 19.4035 25 12.5C25 5.59646 19.4035 0 12.5 0ZM12.1519 10.5927L12.1256 10.1602C12.0469 9.03911 12.7377 8.01516 13.8306 7.61797C14.2328 7.47672 14.9148 7.45906 15.3607 7.58266C15.5356 7.63562 15.8679 7.81214 16.1039 7.97104L16.5323 8.26234L17.0045 8.11229C17.2668 8.03281 17.6166 7.90042 17.7739 7.81214C17.9226 7.73271 18.0537 7.68854 18.0537 7.71505C18.0537 7.8651 17.7302 8.37708 17.4592 8.65953C17.0919 9.05677 17.1969 9.09208 17.9401 8.82724C18.386 8.67719 18.3947 8.67719 18.3073 8.8449C18.2548 8.93318 17.9837 9.24214 17.6952 9.52458C17.2056 10.0101 17.1794 10.0631 17.1794 10.4691C17.1794 11.0958 16.8821 12.4022 16.5848 13.1172C16.034 14.459 14.8536 15.8448 13.6732 16.5421C12.012 17.522 9.79984 17.7691 7.9375 17.1954C7.31672 17.0011 6.25 16.5068 6.25 16.4186C6.25 16.3921 6.57349 16.3568 6.96698 16.348C7.78885 16.3303 8.61073 16.1008 9.31021 15.6947L9.7824 15.4123L9.24026 15.2269C8.47083 14.9621 7.7801 14.353 7.60526 13.7793C7.55276 13.5939 7.57026 13.5851 8.0599 13.5851L8.56703 13.5763L8.13859 13.3732C7.63146 13.1172 7.16807 12.6847 6.94073 12.2433C6.77458 11.9256 6.56479 11.1223 6.62599 11.0605C6.64344 11.0341 6.82708 11.087 7.03693 11.1576C7.64021 11.3783 7.71891 11.3253 7.36917 10.9546C6.71339 10.2837 6.51229 9.28625 6.82708 8.34177L6.97573 7.91807L7.55276 8.49182C8.73318 9.64818 10.1234 10.3367 11.7147 10.5397L12.1519 10.5927Z" fill="#F5FCFF"/>
</svg>
