<svg width="25" height="25" viewBox="0 0 25 25" fill="none" xmlns="http://www.w3.org/2000/svg">
<path fill-rule="evenodd" clip-rule="evenodd" d="M12.5 0C5.59646 0 0 5.59646 0 12.5C0 19.4035 5.59646 25 12.5 25C19.4035 25 25 19.4035 25 12.5C25 5.59646 19.4035 0 12.5 0ZM9.75172 5.87359C10.4628 5.84125 10.6901 5.83333 12.5006 5.83333H12.4985C14.3097 5.83333 14.536 5.84125 15.2472 5.87359C15.9569 5.90609 16.4416 6.01849 16.8667 6.18333C17.3055 6.35349 17.6764 6.58125 18.0472 6.95208C18.4181 7.32266 18.6458 7.69458 18.8167 8.13307C18.9806 8.55698 19.0931 9.04141 19.1264 9.75115C19.1583 10.4623 19.1667 10.6895 19.1667 12.5001C19.1667 14.3106 19.1583 14.5373 19.1264 15.2484C19.0931 15.9579 18.9806 16.4424 18.8167 16.8665C18.6458 17.3048 18.4181 17.6768 18.0472 18.0473C17.6768 18.4182 17.3054 18.6465 16.8671 18.8168C16.4429 18.9817 15.9579 19.094 15.2482 19.1265C14.537 19.1589 14.3105 19.1668 12.4998 19.1668C10.6894 19.1668 10.4623 19.1589 9.75115 19.1265C9.04156 19.094 8.55698 18.9817 8.13281 18.8168C7.69458 18.6465 7.32266 18.4182 6.95224 18.0473C6.58151 17.6768 6.35375 17.3048 6.18333 16.8664C6.01859 16.4424 5.90625 15.958 5.87359 15.2483C5.84141 14.5372 5.83333 14.3106 5.83333 12.5001C5.83333 10.6895 5.84167 10.4621 5.87349 9.75099C5.90542 9.04156 6.01792 8.55698 6.18318 8.13292C6.35401 7.69458 6.58182 7.32266 6.95266 6.95208C7.32323 6.58141 7.69516 6.35359 8.13365 6.18333C8.55755 6.01849 9.04198 5.90609 9.75172 5.87359Z" fill="#F5FCFF"/>
<path fill-rule="evenodd" clip-rule="evenodd" d="M11.9027 7.03475C12.0188 7.03459 12.1437 7.03464 12.2785 7.0347L12.5008 7.03475C14.2808 7.03475 14.4918 7.04115 15.1947 7.07308C15.8447 7.10282 16.1974 7.21141 16.4324 7.30266C16.7436 7.4235 16.9653 7.56798 17.1986 7.80131C17.4319 8.03464 17.5763 8.25688 17.6975 8.56798C17.7887 8.80272 17.8975 9.15548 17.9271 9.80548C17.959 10.5083 17.9659 10.7194 17.9659 12.4985C17.9659 14.2778 17.959 14.4889 17.9271 15.1917C17.8973 15.8417 17.7887 16.1944 17.6975 16.4292C17.5767 16.7403 17.4319 16.9618 17.1986 17.195C16.9652 17.4283 16.7437 17.5728 16.4324 17.6937C16.1977 17.7853 15.8447 17.8937 15.1947 17.9233C14.4919 17.9553 14.2808 17.9622 12.5008 17.9622C10.7206 17.9622 10.5096 17.9553 9.80681 17.9233C9.15681 17.8933 8.80405 17.7847 8.56889 17.6935C8.2578 17.5727 8.03556 17.4282 7.80222 17.1948C7.56889 16.9615 7.42446 16.7399 7.30332 16.4286C7.21207 16.1939 7.10332 15.8411 7.07373 15.1911C7.04181 14.4883 7.0354 14.2772 7.0354 12.4969C7.0354 10.7166 7.04181 10.5066 7.07373 9.80381C7.10347 9.15381 7.21207 8.80105 7.30332 8.56605C7.42415 8.2549 7.56889 8.03272 7.80222 7.79938C8.03556 7.56605 8.2578 7.42157 8.56889 7.30048C8.80389 7.20881 9.15681 7.10048 9.80681 7.07058C10.4218 7.04282 10.6602 7.03449 11.9027 7.03308V7.03475ZM16.0594 8.14173C15.6177 8.14173 15.2594 8.49964 15.2594 8.94147C15.2594 9.38313 15.6177 9.74147 16.0594 9.74147C16.5011 9.74147 16.8594 9.38313 16.8594 8.94147C16.8594 8.4998 16.5011 8.14147 16.0594 8.14147V8.14173ZM9.07712 12.5001C9.07712 10.6094 10.6099 9.07652 12.5006 9.07647C14.3913 9.07647 15.9238 10.6094 15.9238 12.5001C15.9238 14.3908 14.3914 15.9231 12.5008 15.9231C10.61 15.9231 9.07712 14.3908 9.07712 12.5001Z" fill="#F5FCFF"/>
<path d="M12.5006 10.2778C13.7278 10.2778 14.7228 11.2727 14.7228 12.5C14.7228 13.7273 13.7278 14.7223 12.5006 14.7223C11.2732 14.7223 10.2783 13.7273 10.2783 12.5C10.2783 11.2727 11.2732 10.2778 12.5006 10.2778Z" fill="#F5FCFF"/>
</svg>
