<svg width="24" height="27" viewBox="0 0 24 27" fill="none" xmlns="http://www.w3.org/2000/svg">
<g filter="url(#filter0_d_16_39)">
<rect x="2" y="5" width="20" height="20" rx="2" fill="#5FB7E3"/>
<path d="M13.036 7.364V15.968C13.036 17.3 12.658 18.326 11.902 19.046C11.158 19.766 10.15 20.126 8.878 20.126C7.546 20.126 6.478 19.748 5.674 18.992C4.87 18.236 4.468 17.162 4.468 15.77H7.528C7.528 16.298 7.636 16.7 7.852 16.976C8.068 17.24 8.38 17.372 8.788 17.372C9.16 17.372 9.448 17.252 9.652 17.012C9.856 16.772 9.958 16.424 9.958 15.968V7.364H13.036Z" fill="#062433"/>
<path d="M16.4084 22.6531L13.7804 17.8831H13.0424V22.6531H9.96439V10.0171H15.1304C16.1264 10.0171 16.9724 10.1911 17.6684 10.5391C18.3764 10.8871 18.9044 11.3671 19.2524 11.9791C19.6004 12.5791 19.7744 13.2511 19.7744 13.9951C19.7744 14.8351 19.5344 15.5851 19.0544 16.2451C18.5864 16.9051 17.8904 17.3731 16.9664 17.6491L19.8824 22.6531H16.4084ZM13.0424 15.7051H14.9504C15.5144 15.7051 15.9344 15.5671 16.2104 15.2911C16.4984 15.0151 16.6424 14.6251 16.6424 14.1211C16.6424 13.6411 16.4984 13.2631 16.2104 12.9871C15.9344 12.7111 15.5144 12.5731 14.9504 12.5731H13.0424V15.7051Z" fill="#062433"/>
</g>
<defs>
<filter id="filter0_d_16_39" x="0" y="3" width="24" height="24" filterUnits="userSpaceOnUse" color-interpolation-filters="sRGB">
<feFlood flood-opacity="0" result="BackgroundImageFix"/>
<feColorMatrix in="SourceAlpha" type="matrix" values="0 0 0 0 0 0 0 0 0 0 0 0 0 0 0 0 0 0 127 0" result="hardAlpha"/>
<feOffset/>
<feGaussianBlur stdDeviation="1"/>
<feColorMatrix type="matrix" values="0 0 0 0 0.0901961 0 0 0 0 0.847059 0 0 0 0 1 0 0 0 1 0"/>
<feBlend mode="normal" in2="BackgroundImageFix" result="effect1_dropShadow_16_39"/>
<feBlend mode="normal" in="SourceGraphic" in2="effect1_dropShadow_16_39" result="shape"/>
</filter>
</defs>
</svg>
